<?xml version="1.0" standalone="no"?>
<!DOCTYPE svg PUBLIC "-//W3C//DTD SVG 20010904//EN"
 "http://www.w3.org/TR/2001/REC-SVG-20010904/DTD/svg10.dtd">
<svg version="1.0" xmlns="http://www.w3.org/2000/svg"
 width="500.000000pt" height="500.000000pt" viewBox="0 0 500.000000 500.000000"
 preserveAspectRatio="xMidYMid meet">

<g transform="translate(0.000000,500.000000) scale(0.100000,-0.100000)"
fill="#000000" stroke="none">
<path d="M2143 4710 c-93 -37 -143 -118 -143 -233 0 -31 -3 -58 -8 -61 -4 -2
-35 -10 -69 -17 l-62 -13 -107 48 c-139 63 -256 102 -379 127 -200 41 -271 6
-364 -180 -54 -107 -74 -198 -74 -341 0 -103 5 -143 27 -225 14 -55 26 -107
26 -116 0 -9 -20 -59 -44 -110 -80 -170 -112 -291 -125 -471 -8 -131 -16 -148
-71 -148 -44 0 -213 -31 -248 -46 -39 -16 -50 -40 -29 -61 14 -14 32 -14 167
-2 97 8 157 9 167 3 14 -8 73 -216 73 -256 0 -12 -23 -24 -82 -44 -91 -30
-138 -65 -118 -89 16 -20 72 -19 164 1 56 13 79 14 89 6 17 -14 127 -197 127
-211 0 -6 -51 -44 -113 -84 -147 -97 -184 -139 -151 -172 19 -19 43 -13 99 25
82 55 191 117 227 129 36 12 38 11 120 -46 45 -32 139 -86 207 -120 l125 -62
1 -68 c1 -48 7 -80 22 -108 21 -40 84 -104 132 -136 l24 -15 -27 -50 c-40 -75
-101 -151 -226 -286 -104 -113 -118 -125 -174 -144 -77 -26 -101 -39 -151 -79
-151 -122 -127 -373 44 -460 70 -35 153 -54 297 -65 91 -8 152 -19 209 -38 72
-24 94 -27 220 -26 120 0 148 3 196 22 l57 23 75 -41 c70 -38 75 -43 86 -84
26 -106 150 -140 219 -61 17 18 33 47 37 63 6 27 38 52 68 52 7 0 42 15 78 34
l66 34 199 6 c467 16 572 43 702 180 88 93 132 210 132 358 l0 77 62 33 c71
37 121 96 139 161 19 70 8 184 -24 246 l-28 54 57 51 c185 164 141 437 -80
505 -33 10 -61 22 -63 27 -2 5 11 27 28 48 39 46 46 45 195 -19 57 -25 118
-48 134 -51 52 -11 80 35 43 69 -10 8 -73 43 -140 76 -67 33 -124 65 -128 70
-6 10 69 203 89 230 9 11 37 12 146 7 112 -6 138 -4 155 8 20 15 20 15 0 35
-13 14 -58 29 -135 46 -63 15 -121 32 -127 38 -14 14 -7 224 8 249 6 10 52 14
173 18 133 4 168 8 181 21 15 14 14 18 -2 37 -24 29 -97 42 -233 42 -74 0
-111 4 -118 13 -5 6 -18 50 -27 97 -9 47 -31 128 -47 179 l-30 95 26 53 c35
72 34 122 -4 198 -17 33 -41 75 -55 93 -23 32 -24 40 -24 199 -1 230 -29 395
-89 521 -55 118 -124 131 -352 71 l-76 -20 -64 30 c-75 36 -131 40 -206 15
-38 -13 -67 -36 -131 -100 -45 -46 -85 -84 -89 -84 -3 0 -28 20 -56 44 -108
95 -235 129 -334 91 l-46 -17 -44 31 c-84 61 -150 83 -254 87 -79 4 -104 1
-147 -16z m228 -76 c57 -17 149 -69 149 -85 0 -6 -9 -27 -20 -48 -10 -22 -23
-66 -27 -100 l-8 -61 -155 130 c-85 72 -157 136 -158 141 -6 16 60 38 114 39
28 0 75 -7 105 -16z m1069 -73 c40 -20 80 -88 80 -136 0 -45 -23 -106 -66
-176 -45 -72 -39 -84 50 -99 61 -10 158 -50 190 -78 27 -24 56 -91 56 -131 0
-50 -36 -117 -77 -142 -52 -32 -149 -36 -238 -9 -109 33 -122 35 -129 13 -3
-10 1 -43 9 -73 49 -184 -18 -340 -147 -340 -86 0 -156 79 -194 220 -25 92
-31 95 -117 54 -131 -62 -247 -69 -312 -20 -51 39 -68 78 -63 143 8 96 76 166
213 222 43 17 71 34 73 45 2 11 -20 42 -56 80 -113 117 -161 262 -110 335 37
54 69 73 125 73 90 0 161 -47 281 -184 18 -21 36 -38 41 -38 5 0 26 30 47 67
98 176 220 237 344 174z m353 -12 c30 -8 42 -19 61 -57 35 -70 63 -219 71
-379 7 -135 6 -143 -11 -143 -30 0 -84 38 -84 58 0 32 -57 109 -105 142 -25
17 -73 41 -106 52 -66 22 -64 17 -33 98 11 28 18 74 18 122 1 42 4 80 9 84 6
7 103 31 132 33 6 1 27 -4 48 -10z m-1463 -204 c215 -182 247 -211 238 -220
-2 -3 -27 -9 -55 -15 -109 -20 -254 30 -329 113 -47 51 -93 150 -101 215 -7
61 2 106 20 96 7 -4 109 -89 227 -189z m-923 85 c101 -24 235 -75 341 -129 88
-46 96 -47 207 -26 74 15 81 15 90 -1 86 -144 214 -233 360 -250 30 -4 55 -8
55 -10 0 -2 -15 -24 -34 -48 -63 -83 -70 -187 -20 -293 29 -60 68 -96 139
-129 68 -32 187 -33 280 -3 36 12 66 20 68 18 1 -2 16 -33 34 -69 60 -126 141
-190 237 -190 107 0 178 45 224 142 l27 57 42 -33 c131 -104 303 -127 465 -62
35 14 67 26 70 26 19 0 83 -266 72 -295 -4 -8 -24 -19 -45 -25 -21 -5 -58 -15
-81 -21 -93 -24 -120 -54 -75 -83 18 -12 35 -13 100 -4 112 15 111 16 104 -95
-10 -135 -10 -135 -73 -143 -100 -12 -111 -53 -23 -85 55 -19 55 -32 -4 -149
l-42 -85 -68 0 c-67 0 -86 -9 -87 -42 0 -11 26 -35 66 -60 18 -10 15 -15 -31
-62 -27 -28 -53 -51 -57 -51 -4 0 -14 15 -23 34 -60 125 -198 196 -324 166
-122 -29 -221 -164 -221 -302 l0 -38 -65 0 c-113 0 -221 -57 -276 -147 l-23
-36 -225 7 c-581 17 -958 100 -1224 270 -29 19 -59 42 -67 51 -15 19 -15 19
55 68 17 12 25 26 23 40 -4 31 -60 34 -128 7 -47 -19 -55 -19 -75 -6 -31 20
-119 162 -112 180 3 8 31 22 61 32 56 18 70 32 60 59 -5 12 -24 15 -85 15 -70
0 -80 2 -93 23 -20 30 -60 193 -52 212 4 12 24 15 94 15 99 0 129 12 118 48
-8 25 -46 37 -149 47 -85 8 -88 14 -76 150 19 207 96 430 208 599 28 44 51 89
49 99 -5 31 -32 44 -67 30 -35 -13 -42 -7 -60 46 -31 92 -22 246 20 370 25 71
75 148 108 166 37 20 112 18 208 -5z m2553 -597 c33 -27 90 -108 90 -126 0
-10 -171 -2 -243 11 l-38 7 26 35 c14 19 30 53 36 75 18 70 15 67 57 46 22
-11 54 -33 72 -48z m-180 -199 c135 -14 249 -29 253 -33 4 -4 -13 -27 -38 -50
-132 -121 -321 -134 -470 -31 -52 36 -105 103 -105 132 0 18 5 19 58 14 31 -3
167 -18 302 -32z m-241 -1313 c74 -38 131 -135 131 -222 0 -33 26 -63 49 -56
9 3 45 18 80 32 52 22 75 26 113 22 218 -26 240 -281 34 -388 -36 -19 -67 -41
-69 -49 -4 -19 16 -62 39 -81 29 -24 64 -111 64 -161 0 -58 -13 -95 -48 -132
-79 -85 -209 -72 -309 30 -58 58 -79 56 -115 -11 -46 -87 -131 -145 -209 -145
-41 1 -105 36 -135 75 -24 32 -29 49 -32 111 -4 62 0 81 23 133 38 85 32 94
-80 120 -106 25 -175 104 -175 200 0 62 16 97 64 139 59 52 153 66 236 37 38
-13 46 -14 66 0 21 14 22 19 17 109 -5 83 -3 99 16 138 50 105 149 145 240 99z
m-1730 -440 c183 -45 523 -85 826 -97 l163 -7 11 -41 c9 -36 8 -43 -11 -64
-12 -12 -44 -29 -72 -37 -97 -29 -166 -15 -237 50 -22 19 -43 35 -48 35 -5 0
-23 -12 -40 -26 -52 -44 -115 -53 -213 -33 -45 9 -61 20 -104 65 -28 30 -59
54 -68 54 -10 0 -36 -16 -59 -35 -67 -57 -141 -59 -215 -5 -23 16 -48 43 -57
59 -20 40 -20 111 1 111 2 0 57 -13 123 -29z m651 -301 c19 -12 13 -16 -37
-25 -47 -7 -58 5 -20 23 28 14 38 14 57 2z m444 -11 c20 -12 36 -25 36 -29 0
-4 -25 -18 -55 -30 -30 -12 -87 -44 -126 -71 -39 -27 -74 -49 -79 -49 -5 0
-11 14 -15 31 -4 17 -20 46 -37 65 l-30 34 39 0 c52 0 150 26 188 50 37 24 36
24 79 -1z m-778 -20 c105 -32 104 -29 43 -150 -28 -57 -78 -162 -111 -234 -33
-71 -63 -134 -68 -139 -11 -11 -96 51 -140 101 -82 93 -113 229 -71 311 22 42
72 92 116 115 43 23 149 21 231 -4z m269 -102 c17 0 49 2 72 3 79 4 119 -43
107 -129 -5 -38 -2 -57 16 -91 77 -152 -38 -341 -218 -357 -82 -7 -254 39
-276 75 -7 12 196 462 227 500 6 7 17 10 26 6 9 -4 30 -7 46 -7z m642 -23 c-3
-20 -7 -37 -9 -39 -2 -1 -41 -20 -88 -43 -48 -23 -112 -65 -148 -96 -35 -31
-67 -56 -72 -56 -5 0 -12 17 -16 37 -7 35 -4 40 41 80 54 49 150 105 227 133
71 26 72 25 65 -16z m-1357 -207 c30 -96 138 -220 263 -306 104 -71 294 -141
384 -141 33 0 33 0 33 -47 0 -83 -12 -153 -25 -153 -7 0 -36 16 -65 35 -29 19
-58 35 -65 35 -8 0 -35 -11 -60 -24 -104 -56 -281 -57 -395 -4 -59 27 -142
105 -190 178 -58 87 -87 234 -59 307 12 33 150 176 160 165 4 -4 12 -24 19
-45z m1368 26 c3 -20 0 -21 -35 -16 -49 7 -52 11 -28 29 28 20 59 14 63 -13z
m621 -80 c25 -13 50 -23 57 -23 46 0 24 -211 -32 -306 -37 -63 -114 -128 -181
-153 -60 -22 -192 -41 -296 -41 l-59 0 63 43 c113 75 138 143 97 265 -30 88
-23 103 55 126 65 19 137 65 172 112 27 35 27 35 53 17 15 -10 47 -28 71 -40z
m-652 -38 c91 -27 179 -111 210 -201 11 -30 10 -34 -5 -34 -24 0 -464 160
-480 175 -11 10 -8 15 15 30 67 44 171 56 260 30z m-1647 -143 c0 -64 57 -205
114 -281 14 -19 26 -39 26 -44 0 -12 -103 2 -175 24 -89 27 -135 82 -135 161
0 54 26 98 81 138 55 40 89 40 89 2z m1581 -87 c127 -47 238 -89 246 -94 23
-12 -28 -48 -95 -67 -120 -35 -246 -1 -329 89 -68 73 -101 157 -62 157 4 0
112 -38 240 -85z m-411 -147 c-7 -35 -15 -130 -19 -213 -5 -133 -8 -150 -24
-153 -10 -2 -25 2 -34 9 -13 12 -15 37 -11 184 3 93 9 178 13 188 7 17 76 59
84 51 2 -2 -2 -32 -9 -66z m152 16 c17 -19 51 -49 75 -65 23 -17 43 -36 43
-43 0 -24 -130 -106 -170 -106 -17 0 -20 6 -20 39 0 44 19 192 26 203 8 13 13
10 46 -28z"/>
<path d="M2995 4183 c-77 -40 -109 -99 -103 -189 5 -80 38 -133 103 -164 89
-43 183 -15 248 73 40 53 33 172 -15 232 -47 60 -165 84 -233 48z m135 -78
c57 -30 76 -104 41 -161 -40 -66 -142 -66 -182 0 -62 101 38 214 141 161z"/>
<path d="M1613 2935 c-58 -25 -86 -103 -71 -200 14 -96 107 -138 177 -80 40
34 55 83 48 162 -5 68 -20 94 -69 119 -33 17 -44 17 -85 -1z"/>
<path d="M3262 2934 c-72 -50 -78 -212 -10 -269 85 -72 188 8 188 145 0 45
-32 115 -58 129 -30 16 -94 13 -120 -5z"/>
<path d="M2455 2653 c-80 -21 -125 -72 -125 -140 0 -69 49 -112 150 -134 198
-42 311 167 138 257 -30 15 -131 26 -163 17z m139 -94 c17 -14 26 -30 26 -49
0 -87 -198 -85 -208 2 -7 61 121 95 182 47z"/>
<path d="M3484 1918 c-81 -17 -154 -110 -154 -197 0 -33 41 -121 66 -143 29
-26 89 -48 129 -48 40 0 100 22 128 48 56 50 78 172 44 238 -15 30 -80 94 -95
94 -4 0 -23 4 -42 8 -19 5 -53 4 -76 0z m95 -93 c37 -18 64 -76 56 -116 -16
-73 -93 -116 -154 -84 -43 22 -61 53 -61 105 1 88 81 136 159 95z"/>
</g>
</svg>
